PathFileType	4	(X/Y/Z)	./resultDataOpenSim/trcMotMarkerGrf/sub06/qtm-03-08.trc
DataRate	CameraRate	NumFrames	NumMarkers	Units	OrigDataRate	OrigDataStartFrame	OrigNumFrames
250.000000	250.000000	13	24	m	250.000000	385	512
Frame#	Time	L.Toe.Tip			R.Toe.Tip			L.Ankle.Lat			R.Ankle.Lat			L.Ankle.Med			R.Ankle.Med			L.Heel			R.Heel			L.Knee.Lat			R.Knee.Lat			L.Knee.Med			R.Knee.Med			L.Thigh.Upper			R.Thigh.Upper			L.ASIS			R.ASIS			V.Sacral			L.Acromium			R.Acromium			C7			L.Elbow			R.Elbow			L.Wrist.Lat			R.Wrist.Lat
		X1	Y1	Z1	X2	Y2	Z2	X3	Y3	Z3	X4	Y4	Z4	X5	Y5	Z5	X6	Y6	Z6	X7	Y7	Z7	X8	Y8	Z8	X9	Y9	Z9	X10	Y10	Z10	X11	Y11	Z11	X12	Y12	Z12	X13	Y13	Z13	X14	Y14	Z14	X15	Y15	Z15	X16	Y16	Z16	X17	Y17	Z17	X18	Y18	Z18	X19	Y19	Z19	X20	Y20	Z20	X21	Y21	Z21	X22	Y22	Z22	X23	Y23	Z23	X24	Y24	Z24

385	1.536	1.3898789	0.090310369	-0.032593868	0.88782048	0.035483061	0.13710791	1.2628471	0.099060668	-0.048961147	0.75219068	0.070011149	0.15244469	1.2675494	0.11516264	0.034598626	0.78119836	0.09011827	0.067430096	1.1997406	0.055297684	-0.001910651	0.70033604	0.052629102	0.089143991	1.2370397	0.47565485	-0.050732994	0.89633795	0.43410434	0.1891408	1.2277076	0.46557675	0.068744116	0.87749695	0.43203372	0.058125504	1.0391037	0.81647035	-0.092708152	0.96939055	0.79027741	0.24757139	1.0966653	0.8633727	-0.036075729	1.0757565	0.84687552	0.21190712	0.89832188	0.91923843	0.078977336	0.98726161	1.3365976	-0.090681724	1.0174041	1.3233786	0.26837927	0.92646291	1.3629907	0.095324577	0.8771855	1.0439682	-0.14047357	1.0410682	1.003826	0.35188054	0.95962025	0.82484849	-0.21266431	1.2813196	0.96684564	0.29041827
386	1.54	1.406438	0.093054225	-0.031569443	0.88784064	0.035459512	0.13705785	1.2790451	0.098578338	-0.048383049	0.75247119	0.070498705	0.15237078	1.2830487	0.11464129	0.035251219	0.78159328	0.090350644	0.067311409	1.2170805	0.053206644	-0.0014249214	0.70047838	0.053398743	0.089091411	1.2424045	0.47341847	-0.050352858	0.89981602	0.43337001	0.18905062	1.2329812	0.46326402	0.069347188	0.88103449	0.43149202	0.057938817	1.0455872	0.81473177	-0.09279099	0.97533119	0.78868892	0.24710734	1.1031742	0.86139202	-0.036055518	1.0813651	0.84483672	0.21205161	0.90441976	0.91780505	0.078245041	0.99315914	1.3347907	-0.090923063	1.0232386	1.3216951	0.26834026	0.93233018	1.3614876	0.095147737	0.88291065	1.0423443	-0.14029568	1.0483011	1.0022282	0.35193727	0.9636574	0.82295165	-0.21314657	1.2883679	0.96671104	0.28933111
387	1.544	1.4224544	0.095907689	-0.030717759	0.88786212	0.03544061	0.13700809	1.2947849	0.098316306	-0.04783209	0.7527694	0.071032043	0.15232936	1.2982054	0.11428764	0.035892386	0.78202477	0.090614596	0.067223386	1.233985	0.05146129	-0.00087432881	0.70061596	0.054245648	0.08911336	1.2478182	0.47113617	-0.049955734	0.9033676	0.43262847	0.18895118	1.2382324	0.4608832	0.070010687	0.88466829	0.43097571	0.057741148	1.0521047	0.8129812	-0.092850693	0.98098592	0.7871874	0.24667942	1.1097142	0.85939083	-0.036027131	1.0870479	0.84265384	0.21230313	0.91056625	0.91635557	0.077457489	0.99908946	1.3329795	-0.091176763	1.0290681	1.3200109	0.26827945	0.93819934	1.3599555	0.094934249	0.88870238	1.040703	-0.14014548	1.055482	1.0006157	0.35194103	0.96776822	0.8210461	-0.21362153	1.2953622	0.9664639	0.28827371
388	1.548	1.4378776	0.098861501	-0.030042049	0.88788843	0.03541934	0.13695331	1.3100233	0.098252652	-0.047307196	0.75308873	0.071609615	0.15232246	1.3131716	0.11423638	0.036472526	0.7824939	0.090915658	0.067160023	1.2503994	0.050003255	-0.00028234166	0.70076489	0.055170048	0.089193577	1.2533128	0.46882706	-0.049521246	0.90698473	0.43187116	0.18883169	1.2435051	0.45845563	0.070709233	0.88837471	0.43045823	0.057558368	1.0586662	0.81123192	-0.092891732	0.98625939	0.78580246	0.24629456	1.1162881	0.85737385	-0.035995988	1.0928413	0.84032828	0.21271467	0.91674788	0.91488122	0.076693447	1.0050508	1.3311694	-0.091447141	1.0348959	1.3183351	0.26819487	0.94408445	1.358398	0.09466616	0.89455935	1.0390583	-0.14001578	1.0626034	0.99899382	0.3518862	0.97195178	0.81913741	-0.21408381	1.3022926	0.96610762	0.28723336
389	1.552	1.452664	0.10190899	-0.029533599	0.88791511	0.035396982	0.13689645	1.3247154	0.098364208	-0.046796558	0.75343123	0.072232262	0.15235574	1.3278375	0.11453907	0.036964272	0.78298997	0.091263042	0.067119706	1.2662807	0.048781171	0.0003326002	0.70093446	0.05617438	0.089321281	1.2589212	0.46651319	-0.049020344	0.91068556	0.43110601	0.18870547	1.2488491	0.456004	0.071421899	0.89213525	0.42992601	0.057418785	1.0652846	0.80948699	-0.092920313	0.99110754	0.78454704	0.24595713	1.122898	0.85535107	-0.035970913	1.0987325	0.83796123	0.21323211	0.92295567	0.91338255	0.075997308	1.0110393	1.329368	-0.091736132	1.0407226	1.3166722	0.26808421	0.94998776	1.3568192	0.094349178	0.90048546	1.0374147	-0.13990228	1.0696728	0.99737402	0.35178243	0.9762174	0.8172293	-0.21453445	1.30916	0.96564032	0.28620961
390	1.556	1.466772	0.10505393	-0.029190699	0.88792248	0.035399603	0.13685576	1.3388239	0.098619749	-0.046276854	0.75380078	0.072905295	0.15243925	1.3418166	0.11507707	0.03735135	0.78348983	0.091669822	0.06712112	1.2816065	0.047761344	0.00099832844	0.70112896	0.057261419	0.08949169	1.2646559	0.46423278	-0.048447755	0.91449207	0.43034379	0.18859353	1.2543087	0.45355897	0.072152995	0.89595096	0.42938363	0.057340981	1.0719622	0.8077382	-0.09294195	0.99561396	0.78339978	0.24566578	1.1295467	0.85333417	-0.035952076	1.1046533	0.8357139	0.21368737	0.92919042	0.91186797	0.075370442	1.0170552	1.3275801	-0.092043482	1.0465426	1.3150235	0.26794519	0.95590176	1.3552207	0.094004045	0.90648737	1.0357712	-0.13980241	1.076698	0.99576731	0.35164134	0.98057625	0.81532428	-0.21497919	1.3159689	0.96506465	0.28520886
391	1.56	1.4801697	0.10829028	-0.029022104	0.88788517	0.035470206	0.13686026	1.3523262	0.098978288	-0.045719379	0.75421857	0.073629609	0.15258557	1.3547919	0.11569337	0.037658313	0.78396439	0.092147932	0.067200192	1.296374	0.046903203	0.0017837301	0.70135006	0.058434084	0.08970864	1.2704994	0.46203654	-0.047837323	0.91841901	0.42958991	0.18851289	1.2599108	0.4511617	0.072924485	0.89983516	0.42884086	0.057325816	1.0786902	0.80597256	-0.092959485	0.99999939	0.78230421	0.24541273	1.1362432	0.85133403	-0.03593244	1.1105562	0.83368745	0.2139446	0.93546288	0.91034553	0.074787313	1.0231057	1.3258095	-0.092368525	1.0523551	1.3133902	0.26777717	0.96182412	1.3536096	0.093641641	0.91257289	1.0341288	-0.1397137	1.0836756	0.99417824	0.35146641	0.98503165	0.8134252	-0.21542242	1.3227239	0.96438538	0.28423392
392	1.564	1.4928646	0.11153779	-0.029013409	0.8878039	0.035624365	0.13692791	1.3652048	0.099391854	-0.045110509	0.75472997	0.074388666	0.15280627	1.3669147	0.11633087	0.037988583	0.78440662	0.092699058	0.06737369	1.3105673	0.046143326	0.002740338	0.70159658	0.059699729	0.089982619	1.2764323	0.45996564	-0.047226402	0.92247192	0.42884208	0.18847209	1.2656345	0.44885525	0.073751038	0.90379865	0.42830037	0.057359762	1.0854641	0.80418274	-0.092975273	1.0045193	0.78119608	0.24518723	1.1429958	0.8493626	-0.035909675	1.116475	0.83187437	0.21400443	0.94178404	0.90882055	0.074219174	1.0291988	1.3240619	-0.092710807	1.0581679	1.311775	0.2675815	0.96776179	1.3520011	0.093260916	0.91874352	1.0324884	-0.13963674	1.0905967	0.99260781	0.35125857	0.98958071	0.81153668	-0.21586314	1.3294299	0.96360121	0.28328419
393	1.568	1.5049111	0.11461528	-0.029103387	0.88772362	0.035814386	0.1370444	1.3774397	0.099810976	-0.044463925	0.75537799	0.075156282	0.15310054	1.3785936	0.11696361	0.038445909	0.78485127	0.093316669	0.067614736	1.3241161	0.045412713	0.0038827061	0.70186389	0.061072014	0.090322265	1.2824622	0.45803807	-0.046620094	0.9266574	0.42809646	0.18848159	1.2713519	0.44666514	0.07462706	0.90784358	0.42775999	0.057430319	1.0922913	0.80237411	-0.092992424	1.0093402	0.78003548	0.24498031	1.1498028	0.84743268	-0.035886849	1.1224993	0.83022919	0.21392217	0.94815674	0.90730206	0.073647106	1.0353344	1.3223419	-0.093069976	1.0639856	1.3101804	0.26735964	0.97372039	1.3504101	0.092862412	0.92499043	1.0308508	-0.13957419	1.0974567	0.99105835	0.35102028	0.99422036	0.80966501	-0.21629666	1.3360887	0.96270834	0.28236119
394	1.572	1.516354	0.11733419	-0.02922106	0.88769685	0.035961657	0.13717273	1.389017	0.10018735	-0.043796799	0.75614949	0.075925565	0.153433	1.3899515	0.11750897	0.039043961	0.78534575	0.093997988	0.067884586	1.3369072	0.044669944	0.0052014214	0.70214853	0.062563337	0.090729381	1.2886139	0.45625812	-0.04600281	0.93098652	0.42735411	0.18855674	1.2767856	0.44458426	0.075529455	0.91196877	0.4272193	0.057536538	1.0991824	0.80056245	-0.093014673	1.0145087	0.77881427	0.2447865	1.1566546	0.84555258	-0.035864533	1.1287155	0.82872833	0.21370825	0.95457699	0.90580878	0.073057411	1.0415049	1.3206519	-0.093446082	1.069806	1.3086097	0.2671126	0.97970025	1.3488404	0.092449705	0.93130504	1.0292208	-0.13952571	1.1042562	0.98953429	0.35075266	0.99895034	0.8078165	-0.21671923	1.3426969	0.96170717	0.28146913
395	1.576	1.5271721	0.11960079	-0.02931626	0.88773688	0.036018129	0.13728115	1.3999368	0.10047288	-0.043099323	0.75695183	0.076733726	0.15373099	1.4007778	0.11787427	0.039743823	0.78590897	0.094746938	0.068173248	1.3488508	0.043927054	0.0065911821	0.70245604	0.064175975	0.091204203	1.2949035	0.45463372	-0.045364439	0.93545436	0.42661533	0.18869168	1.2816212	0.44258807	0.076428198	0.91617998	0.42667956	0.057678932	1.106139	0.79876708	-0.093049484	1.0200019	0.77754263	0.24460267	1.1635415	0.84372441	-0.035839108	1.1351415	0.8273439	0.21337378	0.96104084	0.90436381	0.072444212	1.0477054	1.3189941	-0.093839745	1.0756311	1.3070659	0.26684259	0.9857021	1.3472848	0.092027849	0.93768851	1.0276062	-0.13948826	1.1109953	0.98804025	0.35045347	1.0037767	0.80599549	-0.21712939	1.3492495	0.96060055	0.28061024
396	1.58	1.5373154	0.1213939	-0.029340731	0.8878285	0.035977524	0.13735114	1.4102101	0.10062083	-0.042341007	0.75768561	0.077646867	0.15395111	1.4109181	0.11801306	0.040535684	0.78653228	0.095568907	0.06849337	1.3599279	0.04322502	0.0078599065	0.70280059	0.065906288	0.091753282	1.3013294	0.45317971	-0.044706946	0.94003825	0.42587396	0.18885511	1.2858697	0.44068304	0.077298783	0.92049753	0.4261392	0.057842268	1.1131519	0.79700684	-0.093106039	1.0257801	0.77623503	0.24442634	1.1704558	0.84194893	-0.035807404	1.1416854	0.82600172	0.21301394	0.9675595	0.90297686	0.071836687	1.0539406	1.3173701	-0.094253972	1.0814707	1.3055522	0.26655209	0.99172885	1.3457395	0.091607506	0.94414335	1.0260149	-0.13945898	1.1176723	0.98658037	0.35012093	1.0087146	0.80420309	-0.2175266	1.3557412	0.95939156	0.27978383
397	1.584	1.5467753	0.12269971	-0.029244443	0.8879625	0.035853822	0.13736254	1.4198479	0.10058873	-0.041496657	0.75835429	0.078704144	0.15415775	1.4204431	0.11790675	0.04144629	0.7872056	0.096471013	0.068855892	1.3701742	0.042561492	0.0089266224	0.7031941	0.067756657	0.09238923	1.3078791	0.45190367	-0.044041076	0.94472907	0.42512409	0.18902846	1.2900882	0.43894019	0.078123965	0.9249546	0.42559206	0.057999342	1.1202074	0.79529824	-0.093186818	1.03181	0.77490416	0.24425488	1.1773916	0.84022837	-0.035771882	1.1482225	0.82462449	0.21274876	0.97417324	0.90163333	0.07131775	1.0602169	1.3157812	-0.094696416	1.0873323	1.3040703	0.26624022	0.99778152	1.3442159	0.091193368	0.95066304	1.0244561	-0.13943641	1.1242895	0.98515972	0.34976037	1.0137801	0.80243755	-0.21791038	1.3621681	0.95808349	0.27899078
